ffmpeg started on 2016-11-26 at 20:55:43
Report written to "Output/NVENCh264/results/ffmpeg/sintelll12000k.log"
Command line:
Tools/ffmpeg/ffmpeg -benchmark -y -i Input/y4m/sintel.y4m -c:v h264_nvenc -preset ll -b:v 12000k -an Output/NVENCh264/encoded/sintelll12000k.mkv
ffmpeg version N-82227-gdb23fde Copyright (c) 2000-2016 the FFmpeg developers
  built with gcc 5.4.0 (Ubuntu 5.4.0-6ubuntu1~16.04.2) 20160609
  configuration: --prefix=/home/jaroslav/ffmpeg_build --pkg-config-flags=--static --extra-cflags=-I/home/jaroslav/ffmpeg_build/include --extra-ldflags=-L/home/jaroslav/ffmpeg_build/lib --bindir=/home/jaroslav/bin --enable-gpl --enable-libass --enable-libfdk-aac --enable-libfreetype --enable-libmp3lame --enable-libopus --enable-libtheora --enable-libvorbis --enable-libvpx --enable-libx264 --enable-libx265 --enable-nvenc --enable-libmfx --enable-libxvid --enable-libgsm --enable-libopencore-amrnb --enable-version3 --enable-nonfree
  libavutil      55. 35.100 / 55. 35.100
  libavcodec     57. 66.101 / 57. 66.101
  libavformat    57. 57.100 / 57. 57.100
  libavdevice    57.  2.100 / 57.  2.100
  libavfilter     6. 66.100 /  6. 66.100
  libswscale      4.  3.100 /  4.  3.100
  libswresample   2.  4.100 /  2.  4.100
  libpostproc    54.  2.100 / 54.  2.100
Input #0, yuv4mpegpipe, from 'Input/y4m/sintel.y4m':
  Duration: 00:00:20.83, start: 0.000000, bitrate: 2057307 kb/s
    Stream #0:0: Video: rawvideo (I420 / 0x30323449), yuv420p(progressive), 4096x1744, SAR 1:1 DAR 256:109, 24 fps, 24 tbr, 24 tbn, 24 tbc
[h264_nvenc @ 0x31cc1c0] The variable bitrate rate-control requires the 'qmin' and/or 'qmax' option set.
Output #0, matroska, to 'Output/NVENCh264/encoded/sintelll12000k.mkv':
  Metadata:
    encoder         : Lavf57.57.100
    Stream #0:0: Video: h264 (h264_nvenc) (Main) (H264 / 0x34363248), yuv420p, 4096x1744 [SAR 1:1 DAR 256:109], q=-1--1, 12000 kb/s, 24 fps, 1k tbn, 24 tbc
    Metadata:
      encoder         : Lavc57.66.101 h264_nvenc
    Side data:
      cpb: bitrate max/min/avg: 0/0/12000000 buffer size: 24000000 vbv_delay: -1
Stream mapping:
  Stream #0:0 -> #0:0 (rawvideo (native) -> h264 (h264_nvenc))
Press [q] to stop, [?] for help
frame=    3 fps=0.0 q=0.0 size=       0kB time=00:00:00.00 bitrate=N/A speed=   0x    frame=   24 fps= 22 q=0.0 size=       0kB time=00:00:00.00 bitrate=N/A speed=   0x    frame=   45 fps= 28 q=33.0 size=       1kB time=00:00:00.58 bitrate=  10.3kbits/s speed=0.369x    frame=   66 fps= 32 q=32.0 size=       1kB time=00:00:01.45 bitrate=   4.1kbits/s speed=0.698x    frame=   87 fps= 33 q=32.0 size=       1kB time=00:00:02.33 bitrate=   2.6kbits/s speed=0.898x    frame=  108 fps= 35 q=26.0 size=       1kB time=00:00:03.20 bitrate=   1.9kbits/s speed=1.03x    frame=  128 fps= 35 q=28.0 size=    5164kB time=00:00:04.04 bitrate=10464.4kbits/s speed=1.12x    frame=  149 fps= 36 q=28.0 size=    6895kB time=00:00:04.91 bitrate=11485.4kbits/s speed=1.19x    frame=  170 fps= 37 q=30.0 size=    6895kB time=00:00:05.79 bitrate=9750.6kbits/s speed=1.25x    frame=  191 fps= 37 q=29.0 size=    6895kB time=00:00:06.66 bitrate=8471.1kbits/s speed=1.29x    frame=  194 fps= 25 q=27.0 size=    6895kB time=00:00:06.79 bitrate=8315.2kbits/s speed=0.888x    frame=  195 fps= 18 q=27.0 size=    6895kB time=00:00:06.83 bitrate=8265.3kbits/s speed=0.624x    frame=  203 fps= 18 q=28.0 size=    6895kB time=00:00:07.16 bitrate=7880.2kbits/s speed=0.626x    frame=  224 fps= 19 q=27.0 size=    6895kB time=00:00:08.04 bitrate=7022.9kbits/s speed=0.673x    frame=  244 fps= 20 q=29.0 size=   12024kB time=00:00:08.87 bitrate=11097.4kbits/s speed=0.712x    frame=  265 fps= 20 q=29.0 size=   12024kB time=00:00:09.75 bitrate=10101.5kbits/s speed=0.752x    frame=  286 fps= 21 q=26.0 size=   12024kB time=00:00:10.62 bitrate=9269.7kbits/s speed=0.788x    frame=  306 fps= 22 q=27.0 size=   16032kB time=00:00:11.45 bitrate=11461.3kbits/s speed=0.819x    frame=  327 fps= 23 q=25.0 size=   16032kB time=00:00:12.33 bitrate=10648.2kbits/s speed=0.85x    frame=  348 fps= 23 q=25.0 size=   16032kB time=00:00:13.20 bitrate=9942.9kbits/s speed=0.88x    frame=  369 fps= 24 q=24.0 size=   16032kB time=00:00:14.08 bitrate=9325.2kbits/s speed=0.906x    frame=  389 fps= 24 q=24.0 size=   21168kB time=00:00:14.91 bitrate=11624.1kbits/s speed=0.93x    frame=  410 fps= 25 q=24.0 size=   21168kB time=00:00:15.79 bitrate=10980.1kbits/s speed=0.954x    frame=  431 fps= 25 q=27.0 size=   21168kB time=00:00:16.66 bitrate=10403.7kbits/s speed=0.977x    frame=  451 fps= 26 q=27.0 size=   25512kB time=00:00:17.50 bitrate=11942.0kbits/s speed=0.996x    frame=  472 fps= 26 q=27.0 size=   25512kB time=00:00:18.37 bitrate=11373.4kbits/s speed=1.02x    frame=  487 fps= 26 q=28.0 size=   25512kB time=00:00:19.00 bitrate=10999.3kbits/s speed=1.01x    frame=  500 fps= 26 q=28.0 Lsize=   30514kB time=00:00:20.79 bitrate=12021.9kbits/s speed=1.09x    
video:30509kB audio:0kB subtitle:0kB other streams:0kB global headers:0kB muxing overhead: 0.015950%
bench: utime=0.908s
bench: maxrss=1197064kB
